# Blender v2.76 (sub 0) OBJ File: ''
# www.blender.org
v -0.707712 -0.268307 -0.830790
v -0.707712 1.264721 -0.830790
v -0.707712 -0.268307 -3.146362
v -0.707712 1.264721 -3.146362
v 0.199564 -0.268307 -0.830790
v 0.199564 1.264721 -0.830790
v 0.199564 -0.268307 -3.146362
v 0.199564 1.264721 -3.146362
vt 0.000000 0.000000
vt 0.000081 0.662025
vt 0.000081 0.000081
vt 0.999919 0.000081
vt 0.999919 0.662025
vn -1.000000 0.000000 0.000000
vn 0.000000 0.000000 -1.000000
vn 1.000000 0.000000 0.000000
vn 0.000000 0.000000 1.000000
vn 0.000000 -1.000000 0.000000
vn 0.000000 1.000000 0.000000
s off
f 4/1/1 3/1/1 1/1/1
f 8/1/2 7/1/2 3/1/2
f 6/2/3 5/3/3 7/4/3
f 2/1/4 1/1/4 5/1/4
f 3/1/5 7/1/5 5/1/5
f 8/1/6 4/1/6 2/1/6
f 2/1/1 4/1/1 1/1/1
f 4/1/2 8/1/2 3/1/2
f 8/5/3 6/2/3 7/4/3
f 6/1/4 2/1/4 5/1/4
f 1/1/5 3/1/5 5/1/5
f 6/1/6 8/1/6 2/1/6
