# Blender v2.76 (sub 0) OBJ File: ''
# www.blender.org
v -0.277468 -0.986481 0.284995
v -0.277468 5.312139 0.284995
v -0.277468 -0.986481 -0.122608
v -0.277468 5.312139 -0.122608
v 0.222005 -0.986481 0.284995
v 0.222005 5.312139 0.284995
v 0.222005 -0.986481 -0.122608
v 0.222005 5.312139 -0.122608
v -0.277468 4.240429 0.284995
v -0.277468 4.240429 -0.122608
v 0.222005 4.240429 -0.122608
v 0.222005 4.240429 0.284995
v 2.450345 5.312139 -0.122608
v 2.450345 5.312139 0.284995
v 2.450345 4.240429 -0.122608
v 2.450345 4.240429 0.284995
vt 1.000000 0.000000
vt 1.000000 1.000000
vt 0.000000 1.000000
vt 0.000000 0.000000
vn -1.000000 0.000000 0.000000
vn 0.000000 0.000000 -1.000000
vn 1.000000 0.000000 0.000000
vn 0.000000 0.000000 1.000000
vn 0.000000 -1.000000 0.000000
vn 0.000000 1.000000 0.000000
s off
f 10/1/1 3/2/1 1/3/1
f 11/1/2 7/2/2 3/3/2
f 12/1/3 5/2/3 7/3/3
f 9/1/4 1/2/4 5/3/4
f 3/1/5 7/2/5 5/3/5
f 8/1/6 4/2/6 2/3/6
f 2/1/4 9/2/4 12/3/4
f 6/1/6 14/2/6 13/3/6
f 8/1/2 11/2/2 10/3/2
f 4/1/1 10/2/1 9/3/1
f 14/1/3 16/2/3 15/3/3
f 8/1/2 13/2/2 15/3/2
f 11/1/5 15/2/5 16/3/5
f 12/1/4 16/2/4 14/3/4
f 9/4/1 10/1/1 1/3/1
f 10/4/2 11/1/2 3/3/2
f 11/4/3 12/1/3 7/3/3
f 12/4/4 9/1/4 5/3/4
f 1/4/5 3/1/5 5/3/5
f 6/4/6 8/1/6 2/3/6
f 6/4/4 2/1/4 12/3/4
f 8/4/6 6/1/6 13/3/6
f 4/4/2 8/1/2 10/3/2
f 2/4/1 4/1/1 9/3/1
f 13/4/3 14/1/3 15/3/3
f 11/4/2 8/1/2 15/3/2
f 12/4/5 11/1/5 16/3/5
f 6/4/4 12/1/4 14/3/4
